<svg xmlns="http://www.w3.org/2000/svg" width="141.074" height="51.853" viewBox="0 0 141.074 51.853">
  <g id="Groupe_99" data-name="Groupe 99" transform="translate(-29.536 -352.209)">
    <path id="Tracé_103" data-name="Tracé 103" d="M147.633,352.209H46.077a2.5,2.5,0,0,0-2.5,2.5v31.333a9.521,9.521,0,1,0,5,8.38c0-.093-.011-.183-.014-.275,0-.047.014-.091.014-.138v-36.8h96.556V370.45a9.521,9.521,0,1,0,4.946,9.388,2.5,2.5,0,0,0,.054-.515V354.709A2.5,2.5,0,0,0,147.633,352.209Z" fill="#333"/>
    <g id="Groupe_97" data-name="Groupe 97">
      <path id="Tracé_104" data-name="Tracé 104" d="M72.939,378.915c-.159-3.005-.351-6.617-.319-9.3h-.1c-.735,2.526-1.63,5.211-2.717,8.184L66,388.249H63.893l-3.485-10.262c-1.023-3.036-1.886-5.817-2.493-8.375h-.064c-.064,2.686-.224,6.3-.415,9.527l-.576,9.238H54.207l1.5-21.546h3.548l3.677,10.421c.9,2.653,1.63,5.019,2.173,7.257h.1c.544-2.174,1.311-4.539,2.27-7.257l3.836-10.421h3.548L76.2,388.377H73.483Z" fill="#333"/>
      <path id="Tracé_105" data-name="Tracé 105" d="M83.267,366.831v12.755c0,4.827,2.142,6.873,5.019,6.873,3.2,0,5.242-2.11,5.242-6.873V366.831h2.813v12.564c0,6.617-3.484,9.334-8.151,9.334-4.412,0-7.736-2.526-7.736-9.207V366.831Z" fill="#333"/>
      <path id="Tracé_106" data-name="Tracé 106" d="M100.787,384.988a9.842,9.842,0,0,0,4.986,1.407c2.846,0,4.508-1.5,4.508-3.676,0-2.014-1.151-3.165-4.06-4.283-3.516-1.248-5.69-3.07-5.69-6.107,0-3.356,2.781-5.85,6.969-5.85a9.794,9.794,0,0,1,4.763,1.055l-.767,2.27a8.592,8.592,0,0,0-4.092-1.023c-2.941,0-4.06,1.758-4.06,3.229,0,2.013,1.311,3.005,4.283,4.155,3.645,1.407,5.5,3.165,5.5,6.33,0,3.324-2.461,6.2-7.544,6.2a11.14,11.14,0,0,1-5.5-1.374Z" fill="#333"/>
      <path id="Tracé_107" data-name="Tracé 107" d="M119.712,366.831v21.546h-2.78V366.831Z" fill="#333"/>
      <path id="Tracé_108" data-name="Tracé 108" d="M139.628,387.674a13.8,13.8,0,0,1-5.69,1.022c-6.073,0-10.645-3.836-10.645-10.9,0-6.745,4.572-11.317,11.253-11.317a11.564,11.564,0,0,1,5.115.959l-.672,2.27a10.117,10.117,0,0,0-4.347-.9c-5.051,0-8.408,3.229-8.408,8.887,0,5.275,3.037,8.663,8.28,8.663a11.119,11.119,0,0,0,4.539-.9Z" fill="#333"/>
    </g>
    <g id="Groupe_98" data-name="Groupe 98">
      <path id="Tracé_109" data-name="Tracé 109" d="M52.611,396.671v7.271h-.939v-7.271Z" fill="#333"/>
      <path id="Tracé_110" data-name="Tracé 110" d="M54.251,403.942v-7.271h1.025l2.33,3.679a20.548,20.548,0,0,1,1.306,2.363l.021-.011c-.086-.972-.108-1.855-.108-2.988v-3.043h.885v7.271h-.95l-2.308-3.689a23.184,23.184,0,0,1-1.36-2.428l-.032.011c.054.917.076,1.791.076,3v3.107Z" fill="#333"/>
      <path id="Tracé_111" data-name="Tracé 111" d="M62.732,397.47H60.521v-.8H65.9v.8H63.681v6.472h-.949Z" fill="#333"/>
      <path id="Tracé_112" data-name="Tracé 112" d="M70.479,400.533H67.652v2.622H70.8v.787H66.714v-7.271h3.927v.788H67.652v2.3h2.827Z" fill="#333"/>
      <path id="Tracé_113" data-name="Tracé 113" d="M72.022,396.769a9.7,9.7,0,0,1,1.8-.152,2.975,2.975,0,0,1,2.1.594,1.812,1.812,0,0,1,.572,1.381,1.908,1.908,0,0,1-1.371,1.855v.032a1.812,1.812,0,0,1,1.068,1.467,11.6,11.6,0,0,0,.561,2h-.97A9.386,9.386,0,0,1,75.3,402.2c-.216-1-.6-1.381-1.456-1.413h-.885v3.15h-.939Zm.939,3.311h.96c1,0,1.64-.55,1.64-1.381,0-.938-.68-1.348-1.672-1.359a3.861,3.861,0,0,0-.928.087Z" fill="#333"/>
      <path id="Tracé_114" data-name="Tracé 114" d="M77.828,403.942v-7.271h1.025l2.33,3.679a20.531,20.531,0,0,1,1.305,2.363l.022-.011c-.087-.972-.108-1.855-.108-2.988v-3.043h.885v7.271h-.95l-2.309-3.689a23.171,23.171,0,0,1-1.359-2.428l-.032.011c.054.917.075,1.791.075,3v3.107Z" fill="#333"/>
      <path id="Tracé_115" data-name="Tracé 115" d="M86.1,401.655l-.755,2.287h-.971l2.471-7.271H87.98l2.481,7.271h-1l-.776-2.287Zm2.384-.733-.712-2.093c-.162-.475-.269-.906-.377-1.327h-.022c-.108.432-.227.874-.367,1.316l-.712,2.1Z" fill="#333"/>
      <path id="Tracé_116" data-name="Tracé 116" d="M92.081,397.47H89.87v-.8h5.383v.8H93.03v6.472h-.949Z" fill="#333"/>
      <path id="Tracé_117" data-name="Tracé 117" d="M97,396.671v7.271h-.938v-7.271Z" fill="#333"/>
      <path id="Tracé_118" data-name="Tracé 118" d="M104.855,400.231c0,2.5-1.521,3.831-3.376,3.831-1.92,0-3.269-1.49-3.269-3.691,0-2.308,1.435-3.818,3.377-3.818C103.572,396.553,104.855,398.073,104.855,400.231Zm-5.642.119c0,1.553.842,2.945,2.32,2.945s2.33-1.37,2.33-3.021c0-1.445-.755-2.956-2.32-2.956S99.213,398.753,99.213,400.35Z" fill="#333"/>
      <path id="Tracé_119" data-name="Tracé 119" d="M106.076,403.942v-7.271H107.1l2.33,3.679a20.4,20.4,0,0,1,1.306,2.363l.021-.011c-.086-.972-.108-1.855-.108-2.988v-3.043h.885v7.271h-.95l-2.308-3.689a23.367,23.367,0,0,1-1.36-2.428l-.032.011c.054.917.076,1.791.076,3v3.107Z" fill="#333"/>
      <path id="Tracé_120" data-name="Tracé 120" d="M114.352,401.655l-.755,2.287h-.972l2.471-7.271h1.133l2.481,7.271h-1l-.777-2.287Zm2.384-.733-.712-2.093c-.162-.475-.27-.906-.378-1.327h-.021c-.108.432-.227.874-.367,1.316l-.712,2.1Z" fill="#333"/>
      <path id="Tracé_121" data-name="Tracé 121" d="M119.779,396.671h.939v6.484h3.107v.787h-4.046Z" fill="#333"/>
      <path id="Tracé_122" data-name="Tracé 122" d="M132.241,403.7a4.653,4.653,0,0,1-1.92.345,3.4,3.4,0,0,1-3.593-3.679,3.618,3.618,0,0,1,3.8-3.818,3.9,3.9,0,0,1,1.726.323l-.226.767a3.411,3.411,0,0,0-1.467-.3,2.7,2.7,0,0,0-2.837,3,2.643,2.643,0,0,0,2.794,2.924,3.752,3.752,0,0,0,1.532-.3Z" fill="#333"/>
      <path id="Tracé_123" data-name="Tracé 123" d="M134.356,396.671v3.043h3.518v-3.043h.949v7.271h-.949v-3.409h-3.518v3.409h-.938v-7.271Z" fill="#333"/>
      <path id="Tracé_124" data-name="Tracé 124" d="M141.629,401.655l-.755,2.287H139.9l2.471-7.271h1.132l2.481,7.271h-1l-.776-2.287Zm2.384-.733-.712-2.093c-.162-.475-.269-.906-.377-1.327H142.9c-.108.432-.227.874-.367,1.316l-.712,2.1Z" fill="#333"/>
      <path id="Tracé_125" data-name="Tracé 125" d="M147.057,403.942v-7.271h1.025l2.33,3.679a20.531,20.531,0,0,1,1.3,2.363l.022-.011c-.087-.972-.108-1.855-.108-2.988v-3.043h.885v7.271h-.95l-2.309-3.689a23.17,23.17,0,0,1-1.359-2.428l-.032.011c.054.917.075,1.791.075,3v3.107Z" fill="#333"/>
      <path id="Tracé_126" data-name="Tracé 126" d="M154.156,403.942v-7.271h1.025l2.33,3.679a20.4,20.4,0,0,1,1.306,2.363l.021-.011c-.086-.972-.108-1.855-.108-2.988v-3.043h.885v7.271h-.949l-2.309-3.689A23.173,23.173,0,0,1,155,397.825l-.033.011c.055.917.076,1.791.076,3v3.107Z" fill="#333"/>
      <path id="Tracé_127" data-name="Tracé 127" d="M165.021,400.533H162.2v2.622h3.15v.787h-4.089v-7.271h3.927v.788H162.2v2.3h2.826Z" fill="#333"/>
      <path id="Tracé_128" data-name="Tracé 128" d="M166.565,396.671h.938v6.484h3.107v.787h-4.045Z" fill="#333"/>
    </g>
  </g>
</svg>
