<svg xmlns="http://www.w3.org/2000/svg" width="121.85" height="53.532" viewBox="0 0 121.85 53.532">
  <g id="Groupe_102" data-name="Groupe 102" transform="translate(-195.579 -228.07)">
    <g id="Groupe_100" data-name="Groupe 100">
      <path id="Tracé_129" data-name="Tracé 129" d="M207.906,258.753a6.083,6.083,0,0,1-5.231,2.24,6.2,6.2,0,0,1-5.331-2.387q-1.765-2.386-1.765-6.868V237.709q0-7.188,3.768-8.98a7.813,7.813,0,0,1,3.366-.659q6.786,0,6.786,8.56v4.426h-4.738v-4.115a10.68,10.68,0,0,0-.421-3.558,1.611,1.611,0,0,0-1.646-1.07,1.706,1.706,0,0,0-1.7,1.134,9.528,9.528,0,0,0-.476,3.476v15.034a10.686,10.686,0,0,0,.458,3.714,1.794,1.794,0,0,0,3.329-.019,10.977,10.977,0,0,0,.457-3.749v-4.61h4.81v4.555Q209.571,256.511,207.906,258.753Z" fill="#333"/>
      <path id="Tracé_130" data-name="Tracé 130" d="M231.831,260.628V228.436h6.091l4.573,23.521,4.3-23.521h6.128v32.192h-4.372v-12l.183-11.011L244.4,260.481h-3.9l-4.518-22.863.183,11.011v12Z" fill="#333"/>
      <path id="Tracé_131" data-name="Tracé 131" d="M257.767,260.628V228.436h10.791v4.225h-5.889v9.365h5.6v4.133h-5.6V256.4h6.109v4.225Z" fill="#333"/>
      <path id="Tracé_132" data-name="Tracé 132" d="M272.672,260.628V228.436H279.9q3.549,0,5.148,2.094t1.6,6.173l.018,14.523q0,4.864-1.609,7.134t-5.323,2.268Zm4.9-3.806h1.61a2.226,2.226,0,0,0,1.966-.877,5.994,5.994,0,0,0,.613-3.219l-.018-15.9a7.579,7.579,0,0,0-.612-3.566,2.24,2.24,0,0,0-2.113-1.061h-1.446Z" fill="#333"/>
      <path id="Tracé_133" data-name="Tracé 133" d="M294.091,260.628V247.769L288.7,228.436h4.682l3.182,12.035h.073l2.835-12.035h4.664l-5.139,19.333v12.859Z" fill="#333"/>
    </g>
    <circle id="Ellipse_283" data-name="Ellipse 283" cx="2.499" cy="2.499" r="2.499" transform="translate(213.13 228.07)" fill="#333"/>
    <circle id="Ellipse_284" data-name="Ellipse 284" cx="2.499" cy="2.499" r="2.499" transform="translate(222.217 228.07)" fill="#333"/>
    <path id="Tracé_134" data-name="Tracé 134" d="M224.81,235.774h-9.079a2.588,2.588,0,0,0-2.576,2.575v13.274c0,3.135.574,5.49,1.737,7.035q1.722,2.34,5.43,2.34c2.458,0,4.253-.78,5.386-2.326s1.678-3.9,1.678-7.049V238.349A2.579,2.579,0,0,0,224.81,235.774Zm-2.339,15.908a12.73,12.73,0,0,1-.427,3.929,1.941,1.941,0,0,1-3.517.03,12.285,12.285,0,0,1-.427-3.959V240.939h4.371Z" fill="#333"/>
    <g id="Groupe_101" data-name="Groupe 101">
      <path id="Tracé_135" data-name="Tracé 135" d="M260.534,281.09a6.919,6.919,0,0,1-2.849.512c-3.041,0-5.331-1.921-5.331-5.458a5.369,5.369,0,0,1,5.635-5.666,5.805,5.805,0,0,1,2.561.479l-.336,1.137a5.072,5.072,0,0,0-2.177-.448c-2.529,0-4.21,1.617-4.21,4.45,0,2.64,1.521,4.338,4.146,4.338a5.576,5.576,0,0,0,2.273-.449Z" fill="#333"/>
      <path id="Tracé_136" data-name="Tracé 136" d="M263.667,270.653v4.514h5.218v-4.514h1.408v10.788h-1.408v-5.057h-5.218v5.057h-1.393V270.653Z" fill="#333"/>
      <path id="Tracé_137" data-name="Tracé 137" d="M274.451,278.048l-1.12,3.393h-1.44l3.665-10.788h1.68l3.682,10.788H279.43l-1.153-3.393Zm3.538-1.088-1.056-3.106c-.241-.7-.4-1.344-.561-1.968h-.032c-.16.64-.336,1.3-.544,1.953l-1.057,3.121Z" fill="#333"/>
      <path id="Tracé_138" data-name="Tracé 138" d="M282.5,281.441V270.653h1.521l3.457,5.458a30.623,30.623,0,0,1,1.936,3.506l.032-.016c-.128-1.441-.16-2.753-.16-4.434v-4.514H290.6v10.788h-1.409l-3.425-5.473a34.358,34.358,0,0,1-2.017-3.6l-.048.016c.08,1.36.113,2.657.113,4.45v4.609Z" fill="#333"/>
      <path id="Tracé_139" data-name="Tracé 139" d="M293.026,281.441V270.653h1.521L298,276.111a30.325,30.325,0,0,1,1.936,3.506l.033-.016c-.128-1.441-.161-2.753-.161-4.434v-4.514h1.313v10.788h-1.408l-3.426-5.473a34.369,34.369,0,0,1-2.017-3.6l-.047.016c.08,1.36.112,2.657.112,4.45v4.609Z" fill="#333"/>
      <path id="Tracé_140" data-name="Tracé 140" d="M309.141,276.384h-4.194v3.889h4.674v1.168h-6.066V270.653h5.826v1.168h-4.434v3.41h4.194Z" fill="#333"/>
      <path id="Tracé_141" data-name="Tracé 141" d="M311.427,270.653h1.392v9.62h4.61v1.168h-6Z" fill="#333"/>
    </g>
  </g>
</svg>
