<svg xmlns="http://www.w3.org/2000/svg" width="135.89" height="54.011" viewBox="0 0 135.89 54.011">
  <g id="Groupe_345" data-name="Groupe 345" transform="translate(-323.908 -269.999)">
    <path id="Path_216" data-name="Path 216" d="M354.254,322.765A25.869,25.869,0,1,1,380.123,296.9h0A25.9,25.9,0,0,1,354.254,322.765Z" fill="#fff"/>
    <rect id="Rectangle_20" data-name="Rectangle 20" width="73.288" height="27.929" rx="2" transform="translate(386.51 296.081)" fill="#333"/>
    <path id="Path_217" data-name="Path 217" d="M384.143,279.635c-1.308-2.261-4.886-2.727-10.6-1.425a26.83,26.83,0,0,0-45.1,26.044c-3.98,4.284-5.364,7.617-4.058,9.894.831,1.438,2.569,2.157,5.193,2.157a24.972,24.972,0,0,0,5.414-.728,26.829,26.829,0,0,0,45.1-26.047C384.065,285.244,385.45,281.911,384.143,279.635Zm-2.166,1.248c.447.779-.092,2.767-2.814,5.947a26.914,26.914,0,0,0-3.757-6.465C379.538,279.591,381.531,280.111,381.977,280.883Zm-27.716-8.366a24.4,24.4,0,0,1,22.99,16.352c-4.526,4.545-11.528,9.7-19.4,14.246s-15.842,8.031-22.024,9.674a24.341,24.341,0,0,1,18.437-40.272ZM326.545,312.9c-.448-.78.09-2.768,2.813-5.947a26.831,26.831,0,0,0,3.756,6.469C328.984,314.192,326.992,313.672,326.545,312.9Zm27.716,8.367a24.249,24.249,0,0,1-16.445-6.436A114.788,114.788,0,0,0,378.04,291.6a24.315,24.315,0,0,1-23.779,29.666Z" fill="#333"/>
    <g id="Group_124" data-name="Group 124">
      <path id="Path_218" data-name="Path 218" d="M366.761,284.923v8.75h-11.25v13.75c0,3.45-3.363,6.25-7.5,6.25s-7.5-2.8-7.5-6.25,3.362-6.25,7.5-6.25a8.3,8.3,0,0,1,5,1.612V284.923Z" fill="#333"/>
    </g>
    <g id="MUSIC_ORBIT" data-name="MUSIC ORBIT" style="isolation: isolate">
      <g id="Groupe_343" data-name="Groupe 343" style="isolation: isolate">
        <path id="Tracé_222" data-name="Tracé 222" d="M404.811,293.684H402.72V281.643q0-1.428.176-3.493h-.051a11.2,11.2,0,0,1-.538,1.74l-6.133,13.794h-1.027l-6.121-13.693a10.761,10.761,0,0,1-.538-1.841h-.051q.1,1.077.1,3.517v12.017H386.51V275.735h2.779l5.508,12.516a16.219,16.219,0,0,1,.826,2.154h.074q.54-1.477.865-2.2l5.62-12.467h2.629Z" fill="#333"/>
        <path id="Tracé_223" data-name="Tracé 223" d="M422.659,286.424q0,7.56-6.821,7.561-6.536,0-6.534-7.273V275.735h2.1v10.84q0,5.518,4.656,5.519,4.494,0,4.494-5.332V275.735h2.1Z" fill="#333"/>
        <path id="Tracé_224" data-name="Tracé 224" d="M426.3,292.958V290.48a4.832,4.832,0,0,0,1.02.676,8.362,8.362,0,0,0,1.252.507,10.028,10.028,0,0,0,1.321.319,7.353,7.353,0,0,0,1.226.112,4.807,4.807,0,0,0,2.9-.719,2.7,2.7,0,0,0,.638-3.336,3.6,3.6,0,0,0-.883-.983,8.62,8.62,0,0,0-1.333-.85q-.768-.408-1.658-.858-.939-.475-1.753-.964a7.609,7.609,0,0,1-1.414-1.077,4.47,4.47,0,0,1-.945-1.333,4.546,4.546,0,0,1,.194-3.88,4.627,4.627,0,0,1,1.414-1.5,6.466,6.466,0,0,1,2-.876,9.133,9.133,0,0,1,2.285-.288,8.752,8.752,0,0,1,3.868.639v2.365a7.019,7.019,0,0,0-4.081-1.1,6.713,6.713,0,0,0-1.377.145,3.892,3.892,0,0,0-1.227.469,2.714,2.714,0,0,0-.876.839,2.228,2.228,0,0,0-.338,1.252,2.578,2.578,0,0,0,.256,1.189,2.915,2.915,0,0,0,.758.913,7.552,7.552,0,0,0,1.221.8q.718.389,1.658.85.963.477,1.827,1a8.358,8.358,0,0,1,1.515,1.164,5.2,5.2,0,0,1,1.033,1.414,3.989,3.989,0,0,1,.382,1.778,4.509,4.509,0,0,1-.52,2.247,4.257,4.257,0,0,1-1.4,1.495,6.1,6.1,0,0,1-2.034.833,11.151,11.151,0,0,1-2.428.257,10.143,10.143,0,0,1-1.052-.069q-.625-.069-1.276-.2a10.518,10.518,0,0,1-1.234-.325A3.846,3.846,0,0,1,426.3,292.958Z" fill="#333"/>
        <path id="Tracé_225" data-name="Tracé 225" d="M442.862,293.684h-2.1V275.735h2.1Z" fill="#333"/>
        <path id="Tracé_226" data-name="Tracé 226" d="M459.8,292.933a10.531,10.531,0,0,1-4.957,1.052,7.991,7.991,0,0,1-6.133-2.466,9.1,9.1,0,0,1-2.3-6.472,9.546,9.546,0,0,1,2.591-6.96,8.8,8.8,0,0,1,6.572-2.653,10.541,10.541,0,0,1,4.231.738v2.242a8.578,8.578,0,0,0-4.256-1.078,6.533,6.533,0,0,0-5.014,2.066,7.785,7.785,0,0,0-1.921,5.52,7.4,7.4,0,0,0,1.8,5.226,6.112,6.112,0,0,0,4.713,1.946,8.844,8.844,0,0,0,4.682-1.2Z" fill="#333"/>
      </g>
      <g id="Groupe_344" data-name="Groupe 344" style="isolation: isolate">
        <path id="Tracé_227" data-name="Tracé 227" d="M397.882,320.9a7.734,7.734,0,0,1-6-2.468A9.159,9.159,0,0,1,389.628,312a9.7,9.7,0,0,1,2.3-6.78,8.02,8.02,0,0,1,6.252-2.531,7.562,7.562,0,0,1,5.878,2.456,9.2,9.2,0,0,1,2.229,6.425A9.738,9.738,0,0,1,404,318.391,7.87,7.87,0,0,1,397.882,320.9Zm.148-16.337a5.677,5.677,0,0,0-4.508,2,8.906,8.906,0,0,0-.043,10.5,5.509,5.509,0,0,0,4.4,1.984,5.782,5.782,0,0,0,4.57-1.893,7.731,7.731,0,0,0,1.67-5.294,8.077,8.077,0,0,0-1.621-5.392A5.557,5.557,0,0,0,398.03,304.559Z" fill="#fff"/>
        <path id="Tracé_228" data-name="Tracé 228" d="M422.376,320.6h-2.457l-2.948-4.939a11.109,11.109,0,0,0-.786-1.173,4.484,4.484,0,0,0-.781-.792,2.677,2.677,0,0,0-.859-.448,3.512,3.512,0,0,0-1.038-.142h-1.695V320.6h-2.064V302.986h5.258a7.516,7.516,0,0,1,2.131.289,4.793,4.793,0,0,1,1.7.878,4.087,4.087,0,0,1,1.124,1.469,4.867,4.867,0,0,1,.4,2.057,4.962,4.962,0,0,1-.276,1.689,4.4,4.4,0,0,1-.786,1.369,4.775,4.775,0,0,1-1.229,1.027,6.263,6.263,0,0,1-1.615.657v.049a3.7,3.7,0,0,1,.768.448,4.322,4.322,0,0,1,.62.6,7.992,7.992,0,0,1,.584.78q.288.436.644,1.014Zm-10.564-15.748v6.387h2.8a4.236,4.236,0,0,0,1.431-.233,3.324,3.324,0,0,0,1.137-.669,3.048,3.048,0,0,0,.749-1.069,3.577,3.577,0,0,0,.27-1.418,2.76,2.76,0,0,0-.915-2.206,3.931,3.931,0,0,0-2.647-.792Z" fill="#fff"/>
        <path id="Tracé_229" data-name="Tracé 229" d="M424.8,320.6V302.986h5.012a5.481,5.481,0,0,1,3.624,1.118,3.617,3.617,0,0,1,1.339,2.912,4.287,4.287,0,0,1-.811,2.6,4.373,4.373,0,0,1-2.236,1.572v.049a4.482,4.482,0,0,1,2.849,1.346,4.134,4.134,0,0,1,1.07,2.954,4.6,4.6,0,0,1-1.622,3.66,6.034,6.034,0,0,1-4.09,1.4Zm2.063-15.748v5.687h2.114a4.008,4.008,0,0,0,2.665-.816,2.846,2.846,0,0,0,.97-2.3q0-2.566-3.378-2.567Zm0,7.542v6.338h2.8a4.2,4.2,0,0,0,2.819-.859,2.945,2.945,0,0,0,1-2.358q0-3.12-4.25-3.121Z" fill="#fff"/>
        <path id="Tracé_230" data-name="Tracé 230" d="M441.28,320.6h-2.063V302.986h2.063Z" fill="#fff"/>
        <path id="Tracé_231" data-name="Tracé 231" d="M456.328,304.854h-5.085V320.6h-2.064V304.854h-5.074v-1.868h12.223Z" fill="#fff"/>
      </g>
    </g>
  </g>
</svg>
