<svg xmlns="http://www.w3.org/2000/svg" width="123.763" height="53.75" viewBox="0 0 123.763 53.75">
  <g id="Groupe_96" data-name="Groupe 96" transform="translate(-27.953 -102.03)">
    <g id="Groupe_94" data-name="Groupe 94">
      <rect id="Rectangle_16" data-name="Rectangle 16" width="98.763" height="53.75" transform="translate(52.953 102.03)" fill="#333"/>
    </g>
    <circle id="Ellipse_282" data-name="Ellipse 282" cx="25.625" cy="25.625" r="25.625" transform="translate(29.203 103.28)" fill="#fff"/>
    <g id="Groupe_95" data-name="Groupe 95">
      <path id="Tracé_92" data-name="Tracé 92" d="M91.658,124.954a11.857,11.857,0,0,1-3.9.7,5.964,5.964,0,0,1-6.52-6.407c.019-3.788,2.619-6.558,6.878-6.558a7.848,7.848,0,0,1,3.166.584l-.4,1.338a6.588,6.588,0,0,0-2.807-.546,4.75,4.75,0,0,0-5.107,5.106c0,3.223,1.941,5.126,4.9,5.126a5.339,5.339,0,0,0,2.186-.339v-3.788H87.475v-1.319h4.183Z" fill="#fff"/>
      <path id="Tracé_93" data-name="Tracé 93" d="M94.168,112.818h1.64v11.326h5.427v1.375H94.168Z" fill="#fff"/>
      <path id="Tracé_94" data-name="Tracé 94" d="M113.186,119.037c0,4.372-2.658,6.69-5.9,6.69-3.354,0-5.71-2.6-5.71-6.446,0-4.032,2.506-6.671,5.9-6.671C110.943,112.61,113.186,115.268,113.186,119.037Zm-9.856.207c0,2.714,1.47,5.144,4.051,5.144,2.6,0,4.071-2.393,4.071-5.276,0-2.525-1.319-5.164-4.052-5.164C104.687,113.948,103.33,116.455,103.33,119.244Z" fill="#fff"/>
      <path id="Tracé_95" data-name="Tracé 95" d="M115.319,112.987a15.887,15.887,0,0,1,3-.263,5.249,5.249,0,0,1,3.486.923,2.665,2.665,0,0,1,1.055,2.243,3.015,3.015,0,0,1-2.148,2.788v.038a3.275,3.275,0,0,1,2.619,3.185,3.423,3.423,0,0,1-1.074,2.544c-.885.81-2.317,1.187-4.391,1.187a19.064,19.064,0,0,1-2.544-.151Zm1.64,5.2h1.489c1.733,0,2.751-.9,2.751-2.129,0-1.489-1.131-2.073-2.789-2.073a7,7,0,0,0-1.451.113Zm0,6.087a8.679,8.679,0,0,0,1.375.076c1.7,0,3.261-.622,3.261-2.469,0-1.734-1.489-2.45-3.279-2.45h-1.357Z" fill="#fff"/>
      <path id="Tracé_96" data-name="Tracé 96" d="M127.59,121.524l-1.319,3.995h-1.7l4.316-12.7h1.978l4.335,12.7h-1.753l-1.357-3.995Zm4.165-1.281-1.244-3.656c-.282-.83-.471-1.583-.659-2.318h-.038c-.189.753-.4,1.526-.641,2.3l-1.243,3.675Z" fill="#fff"/>
      <path id="Tracé_97" data-name="Tracé 97" d="M137.073,112.818h1.64v11.326h5.427v1.375h-7.067Z" fill="#fff"/>
      <path id="Tracé_98" data-name="Tracé 98" d="M84.908,150.261V134.382h2.238l5.089,8.034a44.918,44.918,0,0,1,2.851,5.16l.047-.024c-.189-2.12-.236-4.052-.236-6.526v-6.644h1.932v15.879H94.756L89.714,142.2a50.433,50.433,0,0,1-2.968-5.3l-.071.023c.118,2,.165,3.911.165,6.55v6.785Z" fill="#fff"/>
      <path id="Tracé_99" data-name="Tracé 99" d="M108.635,142.816h-6.172v5.726h6.879v1.719h-8.929V134.382h8.576v1.72h-6.526v5.018h6.172Z" fill="#fff"/>
      <path id="Tracé_100" data-name="Tracé 100" d="M114.81,150.261l-4.029-15.879h2.167l1.885,8.034c.471,1.979.895,3.958,1.178,5.489h.047c.259-1.578.754-3.463,1.3-5.513l2.12-8.01h2.144l1.932,8.057c.448,1.885.872,3.77,1.107,5.443h.047c.33-1.744.778-3.51,1.273-5.49l2.1-8.01h2.1l-4.5,15.879h-2.144l-2-8.269a47.749,47.749,0,0,1-1.037-5.183h-.047a49.723,49.723,0,0,1-1.225,5.183l-2.262,8.269Z" fill="#fff"/>
      <path id="Tracé_101" data-name="Tracé 101" d="M131.87,147.764a7.259,7.259,0,0,0,3.675,1.036c2.1,0,3.322-1.107,3.322-2.709,0-1.484-.848-2.332-2.992-3.157-2.591-.919-4.193-2.262-4.193-4.5,0-2.474,2.049-4.311,5.135-4.311a7.224,7.224,0,0,1,3.511.777l-.565,1.673a6.337,6.337,0,0,0-3.016-.754c-2.167,0-2.992,1.3-2.992,2.38,0,1.484.966,2.215,3.157,3.062,2.686,1.037,4.052,2.333,4.052,4.665,0,2.45-1.814,4.571-5.56,4.571a8.21,8.21,0,0,1-4.052-1.013Z" fill="#fff"/>
    </g>
    <path id="Tracé_102" data-name="Tracé 102" d="M54.828,102.03A26.875,26.875,0,1,0,81.7,128.9,26.907,26.907,0,0,0,54.828,102.03Zm24.314,25.659c-1.013,1.548-3.476,4.8-5.753,5.765-.625.264-1.179.476-1.666.662-2.165.828-3.876,1.482-3.562,4.383.169,1.569-.6,4.526-1.617,5.4-.116.1-.2.14-.281.121a4.961,4.961,0,0,1-.324-1.775c-.132-1.6-.313-3.793-2.219-5-3.465-2.2-3.721-3.256-2.98-4.44.255-.409.556-.853.87-1.317,1.745-2.578,4.384-6.474,1.4-8.652l-.748-.543c-1.724-1.246-2.035-1.471-2.606-2.63-.112-.227.164-.81.386-1.277.441-.929,1.178-2.483-.125-3.786a5.567,5.567,0,0,1-1.412-4.131c.175-1.754,1.323-3.394,3.389-4.885A24.4,24.4,0,0,1,79.142,127.689ZM30.453,128.9a24.389,24.389,0,0,1,14.213-22.127c1.3.641,2.672,1.589,2.864,2.79.2,1.251-.818,2.931-2.95,4.857-3.7,3.35-2.718,5.3-1.044,7.492a8.685,8.685,0,0,1,1.654,2.922c.658,2.286-.407,3.018-3.872,4.687-.721.347-1.48.713-2.244,1.128-4.718,2.557-3.053,7.526-1.584,11.91l.308.924a9.845,9.845,0,0,1,.611,3.38A24.289,24.289,0,0,1,30.453,128.9Zm21.962,24.253c-1.3-2.349-2.172-5.2-1.415-5.733.407-.29,1.521.641,2.414,1.388,1.561,1.3,3.5,2.929,5.768,2.141.43-.149.884-.324,1.352-.5,1.683-.65,3.776-1.457,4.824-.887a1.83,1.83,0,0,1,.731.939,24.2,24.2,0,0,1-11.261,2.778C54.014,153.28,53.209,153.237,52.415,153.158Zm15.826-3.92a4.118,4.118,0,0,0-1.685-1.869c-2.063-1.128-4.645-.13-6.922.748-.44.17-.868.336-1.271.475-.926.321-2.156-.7-3.346-1.7-1.549-1.294-3.477-2.9-5.455-1.515-2.185,1.536-1.246,4.9-.2,7.26a24.231,24.231,0,0,1-8.738-3.967c.382-1.1.543-2.961-.449-5.967l-.311-.935c-1.529-4.564-2.328-7.437.4-8.919.728-.394,1.45-.742,2.137-1.072,3.19-1.536,6.488-3.125,5.191-7.633a11.022,11.022,0,0,0-2.069-3.745c-1.261-1.654-1.561-2.047.733-4.121,2.87-2.594,4.094-4.92,3.742-7.109a5.552,5.552,0,0,0-2.421-3.539,23.7,23.7,0,0,1,11.244-.745,8.545,8.545,0,0,0-2.805,5.334,7.905,7.905,0,0,0,2.134,6.12,3.6,3.6,0,0,1-.369.972,3.812,3.812,0,0,0-.37,3.454c.846,1.716,1.537,2.216,3.385,3.551l.739.536c1.035.755-.789,3.449-2,5.232-.332.491-.65.96-.92,1.392-2.459,3.933,1.9,6.7,3.761,7.878.8.5.939,1.553,1.067,3.1.121,1.471.288,3.486,2.2,3.992a2.577,2.577,0,0,0,.666.088,2.844,2.844,0,0,0,1.859-.736c1.838-1.579,2.693-5.536,2.473-7.566-.106-.985-.106-.985,1.97-1.779.51-.2,1.092-.417,1.747-.7a13.9,13.9,0,0,0,4.617-3.727A24.39,24.39,0,0,1,68.241,149.238Z" fill="#333"/>
  </g>
</svg>
