<svg xmlns="http://www.w3.org/2000/svg" width="201.802" height="69" viewBox="0 0 201.802 69">
  <g id="Groupe_143" data-name="Groupe 143" transform="translate(38.333 -128.833)" opacity="0.5">
    <path id="Tracé_18" data-name="Tracé 18" d="M-35.333,172.833c24.475,0,24.475,24,48.951,24s24.475-24,48.949-24,24.475,24,48.95,24,24.476-24,48.952-24" fill="none" stroke="#dbd8e1" stroke-linecap="round" stroke-linejoin="round" stroke-width="2"/>
    <path id="Tracé_19" data-name="Tracé 19" d="M-35.333,151.833c24.475,0,24.475,24,48.951,24s24.475-24,48.949-24,24.475,24,48.95,24,24.476-24,48.952-24" fill="none" stroke="#813afe" stroke-linecap="round" stroke-linejoin="round" stroke-width="6"/>
    <path id="Tracé_20" data-name="Tracé 20" d="M-35.333,130.833c24.475,0,24.475,24,48.951,24s24.475-24,48.949-24,24.475,24,48.95,24,24.476-24,48.952-24" fill="none" stroke="#e1cfff" stroke-linecap="round" stroke-linejoin="round" stroke-width="4"/>
  </g>
</svg>
