<svg xmlns="http://www.w3.org/2000/svg" width="160.15" height="164.834" viewBox="0 0 160.15 164.834">
  <g id="Groupe_131" data-name="Groupe 131" transform="translate(-1537.794 -1160.092)" opacity="0.5">
    <g id="Groupe_88" data-name="Groupe 88" opacity="0.5">
      <path id="Tracé_24" data-name="Tracé 24" d="M625.682,58.482a3.944,3.944,0,1,1-3.944-3.944A3.944,3.944,0,0,1,625.682,58.482Z" transform="translate(921 1174)" fill="none" stroke="#333" stroke-linecap="round" stroke-linejoin="round" stroke-width="2"/>
      <path id="Tracé_25" data-name="Tracé 25" d="M647.77,58.482a3.945,3.945,0,1,1-3.945-3.944A3.944,3.944,0,0,1,647.77,58.482Z" transform="translate(921 1174)" fill="none" stroke="#813afe" stroke-linecap="round" stroke-linejoin="round" stroke-width="3"/>
      <path id="Tracé_26" data-name="Tracé 26" d="M669.857,58.482a3.944,3.944,0,1,1-3.944-3.944A3.944,3.944,0,0,1,669.857,58.482Z" transform="translate(921 1174)" fill="none" stroke="#333" stroke-linecap="round" stroke-linejoin="round" stroke-width="2"/>
      <path id="Tracé_27" data-name="Tracé 27" d="M691.944,58.482A3.944,3.944,0,1,1,688,54.538,3.944,3.944,0,0,1,691.944,58.482Z" transform="translate(921 1174)" fill="none" stroke="#333" stroke-linecap="round" stroke-linejoin="round" stroke-width="1"/>
      <path id="Tracé_28" data-name="Tracé 28" d="M625.682,36a3.944,3.944,0,1,1-3.944-3.944A3.944,3.944,0,0,1,625.682,36Z" transform="translate(921 1174)" fill="none" stroke="#333" stroke-linecap="round" stroke-linejoin="round" stroke-width="2"/>
      <path id="Tracé_29" data-name="Tracé 29" d="M647.77,36a3.945,3.945,0,1,1-3.945-3.944A3.944,3.944,0,0,1,647.77,36Z" transform="translate(921 1174)" fill="none" stroke="#333" stroke-linecap="round" stroke-linejoin="round" stroke-width="1"/>
      <path id="Tracé_30" data-name="Tracé 30" d="M669.857,36a3.944,3.944,0,1,1-3.944-3.944A3.944,3.944,0,0,1,669.857,36Z" transform="translate(921 1174)" fill="none" stroke="#333" stroke-linecap="round" stroke-linejoin="round" stroke-width="2"/>
      <circle id="Ellipse_269" data-name="Ellipse 269" cx="3.944" cy="3.944" r="3.944" transform="translate(1605.056 1206.056)" fill="none" stroke="#813afe" stroke-linecap="round" stroke-linejoin="round" stroke-width="2"/>
      <path id="Tracé_31" data-name="Tracé 31" d="M625.682,13.518a3.944,3.944,0,1,1-3.944-3.944A3.944,3.944,0,0,1,625.682,13.518Z" transform="translate(921 1174)" fill="none" stroke="#813afe" stroke-linecap="round" stroke-linejoin="round" stroke-width="2"/>
      <path id="Tracé_32" data-name="Tracé 32" d="M647.77,13.518a3.945,3.945,0,1,1-3.945-3.944A3.944,3.944,0,0,1,647.77,13.518Z" transform="translate(921 1174)" fill="none" stroke="#333" stroke-linecap="round" stroke-linejoin="round" stroke-width="2"/>
      <path id="Tracé_33" data-name="Tracé 33" d="M669.857,13.518a3.944,3.944,0,1,1-3.944-3.944A3.944,3.944,0,0,1,669.857,13.518Z" transform="translate(921 1174)" fill="none" stroke="#333" stroke-linecap="round" stroke-linejoin="round" stroke-width="2"/>
      <path id="Tracé_34" data-name="Tracé 34" d="M691.944,13.518A3.944,3.944,0,1,1,688,9.574,3.944,3.944,0,0,1,691.944,13.518Z" transform="translate(921 1174)" fill="none" stroke="#333" stroke-linecap="round" stroke-linejoin="round" stroke-width="2"/>
      <path id="Tracé_35" data-name="Tracé 35" d="M625.682-8.963a3.944,3.944,0,0,1-3.944,3.944,3.944,3.944,0,0,1-3.944-3.944,3.944,3.944,0,0,1,3.944-3.945A3.944,3.944,0,0,1,625.682-8.963Z" transform="translate(921 1174)" fill="none" stroke="#333" stroke-linecap="round" stroke-linejoin="round" stroke-width="2"/>
      <path id="Tracé_36" data-name="Tracé 36" d="M647.77-8.963a3.944,3.944,0,0,1-3.945,3.944,3.944,3.944,0,0,1-3.944-3.944,3.944,3.944,0,0,1,3.944-3.945A3.945,3.945,0,0,1,647.77-8.963Z" transform="translate(921 1174)" fill="none" stroke="#333" stroke-linecap="round" stroke-linejoin="round" stroke-width="2"/>
      <path id="Tracé_37" data-name="Tracé 37" d="M669.857-8.963a3.944,3.944,0,0,1-3.944,3.944,3.944,3.944,0,0,1-3.944-3.944,3.944,3.944,0,0,1,3.944-3.945A3.944,3.944,0,0,1,669.857-8.963Z" transform="translate(921 1174)" fill="none" stroke="#813afe" stroke-linecap="round" stroke-linejoin="round" stroke-width="2"/>
      <path id="Tracé_38" data-name="Tracé 38" d="M691.944-8.963A3.944,3.944,0,0,1,688-5.019a3.944,3.944,0,0,1-3.944-3.944A3.944,3.944,0,0,1,688-12.908,3.944,3.944,0,0,1,691.944-8.963Z" transform="translate(921 1174)" fill="none" stroke="#333" stroke-linecap="round" stroke-linejoin="round" stroke-width="2"/>
    </g>
    <g id="Groupe_130" data-name="Groupe 130" transform="translate(0 87)" opacity="0.5">
      <path id="Tracé_24-2" data-name="Tracé 24" d="M625.682,58.482a3.944,3.944,0,1,1-3.944-3.944A3.944,3.944,0,0,1,625.682,58.482Z" transform="translate(921 1174)" fill="none" stroke="#333" stroke-linecap="round" stroke-linejoin="round" stroke-width="2"/>
      <path id="Tracé_25-2" data-name="Tracé 25" d="M647.77,58.482a3.945,3.945,0,1,1-3.945-3.944A3.944,3.944,0,0,1,647.77,58.482Z" transform="translate(921 1174)" fill="none" stroke="#813afe" stroke-linecap="round" stroke-linejoin="round" stroke-width="3"/>
      <path id="Tracé_26-2" data-name="Tracé 26" d="M669.857,58.482a3.944,3.944,0,1,1-3.944-3.944A3.944,3.944,0,0,1,669.857,58.482Z" transform="translate(921 1174)" fill="none" stroke="#333" stroke-linecap="round" stroke-linejoin="round" stroke-width="2"/>
      <path id="Tracé_27-2" data-name="Tracé 27" d="M691.944,58.482A3.944,3.944,0,1,1,688,54.538,3.944,3.944,0,0,1,691.944,58.482Z" transform="translate(921 1174)" fill="none" stroke="#333" stroke-linecap="round" stroke-linejoin="round" stroke-width="1"/>
      <path id="Tracé_28-2" data-name="Tracé 28" d="M625.682,36a3.944,3.944,0,1,1-3.944-3.944A3.944,3.944,0,0,1,625.682,36Z" transform="translate(921 1174)" fill="none" stroke="#333" stroke-linecap="round" stroke-linejoin="round" stroke-width="2"/>
      <path id="Tracé_29-2" data-name="Tracé 29" d="M647.77,36a3.945,3.945,0,1,1-3.945-3.944A3.944,3.944,0,0,1,647.77,36Z" transform="translate(921 1174)" fill="none" stroke="#333" stroke-linecap="round" stroke-linejoin="round" stroke-width="1"/>
      <path id="Tracé_30-2" data-name="Tracé 30" d="M669.857,36a3.944,3.944,0,1,1-3.944-3.944A3.944,3.944,0,0,1,669.857,36Z" transform="translate(921 1174)" fill="none" stroke="#333" stroke-linecap="round" stroke-linejoin="round" stroke-width="2"/>
      <circle id="Ellipse_269-2" data-name="Ellipse 269" cx="3.944" cy="3.944" r="3.944" transform="translate(1605.056 1206.056)" fill="none" stroke="#813afe" stroke-linecap="round" stroke-linejoin="round" stroke-width="2"/>
      <path id="Tracé_31-2" data-name="Tracé 31" d="M625.682,13.518a3.944,3.944,0,1,1-3.944-3.944A3.944,3.944,0,0,1,625.682,13.518Z" transform="translate(921 1174)" fill="none" stroke="#813afe" stroke-linecap="round" stroke-linejoin="round" stroke-width="2"/>
      <path id="Tracé_32-2" data-name="Tracé 32" d="M647.77,13.518a3.945,3.945,0,1,1-3.945-3.944A3.944,3.944,0,0,1,647.77,13.518Z" transform="translate(921 1174)" fill="none" stroke="#333" stroke-linecap="round" stroke-linejoin="round" stroke-width="2"/>
      <path id="Tracé_33-2" data-name="Tracé 33" d="M669.857,13.518a3.944,3.944,0,1,1-3.944-3.944A3.944,3.944,0,0,1,669.857,13.518Z" transform="translate(921 1174)" fill="none" stroke="#333" stroke-linecap="round" stroke-linejoin="round" stroke-width="2"/>
      <path id="Tracé_34-2" data-name="Tracé 34" d="M691.944,13.518A3.944,3.944,0,1,1,688,9.574,3.944,3.944,0,0,1,691.944,13.518Z" transform="translate(921 1174)" fill="none" stroke="#333" stroke-linecap="round" stroke-linejoin="round" stroke-width="2"/>
      <path id="Tracé_35-2" data-name="Tracé 35" d="M625.682-8.963a3.944,3.944,0,0,1-3.944,3.944,3.944,3.944,0,0,1-3.944-3.944,3.944,3.944,0,0,1,3.944-3.945A3.944,3.944,0,0,1,625.682-8.963Z" transform="translate(921 1174)" fill="none" stroke="#333" stroke-linecap="round" stroke-linejoin="round" stroke-width="2"/>
      <path id="Tracé_36-2" data-name="Tracé 36" d="M647.77-8.963a3.944,3.944,0,0,1-3.945,3.944,3.944,3.944,0,0,1-3.944-3.944,3.944,3.944,0,0,1,3.944-3.945A3.945,3.945,0,0,1,647.77-8.963Z" transform="translate(921 1174)" fill="none" stroke="#333" stroke-linecap="round" stroke-linejoin="round" stroke-width="2"/>
      <path id="Tracé_37-2" data-name="Tracé 37" d="M669.857-8.963a3.944,3.944,0,0,1-3.944,3.944,3.944,3.944,0,0,1-3.944-3.944,3.944,3.944,0,0,1,3.944-3.945A3.944,3.944,0,0,1,669.857-8.963Z" transform="translate(921 1174)" fill="none" stroke="#813afe" stroke-linecap="round" stroke-linejoin="round" stroke-width="2"/>
      <path id="Tracé_38-2" data-name="Tracé 38" d="M691.944-8.963A3.944,3.944,0,0,1,688-5.019a3.944,3.944,0,0,1-3.944-3.944A3.944,3.944,0,0,1,688-12.908,3.944,3.944,0,0,1,691.944-8.963Z" transform="translate(921 1174)" fill="none" stroke="#333" stroke-linecap="round" stroke-linejoin="round" stroke-width="2"/>
    </g>
    <g id="Groupe_128" data-name="Groupe 128" transform="translate(84)" opacity="0.5">
      <path id="Tracé_24-3" data-name="Tracé 24" d="M625.682,58.482a3.944,3.944,0,1,1-3.944-3.944A3.944,3.944,0,0,1,625.682,58.482Z" transform="translate(921 1174)" fill="none" stroke="#333" stroke-linecap="round" stroke-linejoin="round" stroke-width="2"/>
      <path id="Tracé_25-3" data-name="Tracé 25" d="M647.77,58.482a3.945,3.945,0,1,1-3.945-3.944A3.944,3.944,0,0,1,647.77,58.482Z" transform="translate(921 1174)" fill="none" stroke="#813afe" stroke-linecap="round" stroke-linejoin="round" stroke-width="3"/>
      <path id="Tracé_26-3" data-name="Tracé 26" d="M669.857,58.482a3.944,3.944,0,1,1-3.944-3.944A3.944,3.944,0,0,1,669.857,58.482Z" transform="translate(921 1174)" fill="none" stroke="#333" stroke-linecap="round" stroke-linejoin="round" stroke-width="2"/>
      <path id="Tracé_27-3" data-name="Tracé 27" d="M691.944,58.482A3.944,3.944,0,1,1,688,54.538,3.944,3.944,0,0,1,691.944,58.482Z" transform="translate(921 1174)" fill="none" stroke="#333" stroke-linecap="round" stroke-linejoin="round" stroke-width="1"/>
      <path id="Tracé_28-3" data-name="Tracé 28" d="M625.682,36a3.944,3.944,0,1,1-3.944-3.944A3.944,3.944,0,0,1,625.682,36Z" transform="translate(921 1174)" fill="none" stroke="#333" stroke-linecap="round" stroke-linejoin="round" stroke-width="2"/>
      <path id="Tracé_29-3" data-name="Tracé 29" d="M647.77,36a3.945,3.945,0,1,1-3.945-3.944A3.944,3.944,0,0,1,647.77,36Z" transform="translate(921 1174)" fill="none" stroke="#333" stroke-linecap="round" stroke-linejoin="round" stroke-width="1"/>
      <path id="Tracé_30-3" data-name="Tracé 30" d="M669.857,36a3.944,3.944,0,1,1-3.944-3.944A3.944,3.944,0,0,1,669.857,36Z" transform="translate(921 1174)" fill="none" stroke="#333" stroke-linecap="round" stroke-linejoin="round" stroke-width="2"/>
      <circle id="Ellipse_269-3" data-name="Ellipse 269" cx="3.944" cy="3.944" r="3.944" transform="translate(1605.056 1206.056)" fill="none" stroke="#813afe" stroke-linecap="round" stroke-linejoin="round" stroke-width="2"/>
      <path id="Tracé_31-3" data-name="Tracé 31" d="M625.682,13.518a3.944,3.944,0,1,1-3.944-3.944A3.944,3.944,0,0,1,625.682,13.518Z" transform="translate(921 1174)" fill="none" stroke="#813afe" stroke-linecap="round" stroke-linejoin="round" stroke-width="2"/>
      <path id="Tracé_32-3" data-name="Tracé 32" d="M647.77,13.518a3.945,3.945,0,1,1-3.945-3.944A3.944,3.944,0,0,1,647.77,13.518Z" transform="translate(921 1174)" fill="none" stroke="#333" stroke-linecap="round" stroke-linejoin="round" stroke-width="2"/>
      <path id="Tracé_33-3" data-name="Tracé 33" d="M669.857,13.518a3.944,3.944,0,1,1-3.944-3.944A3.944,3.944,0,0,1,669.857,13.518Z" transform="translate(921 1174)" fill="none" stroke="#333" stroke-linecap="round" stroke-linejoin="round" stroke-width="2"/>
      <path id="Tracé_34-3" data-name="Tracé 34" d="M691.944,13.518A3.944,3.944,0,1,1,688,9.574,3.944,3.944,0,0,1,691.944,13.518Z" transform="translate(921 1174)" fill="none" stroke="#333" stroke-linecap="round" stroke-linejoin="round" stroke-width="2"/>
      <path id="Tracé_35-3" data-name="Tracé 35" d="M625.682-8.963a3.944,3.944,0,0,1-3.944,3.944,3.944,3.944,0,0,1-3.944-3.944,3.944,3.944,0,0,1,3.944-3.945A3.944,3.944,0,0,1,625.682-8.963Z" transform="translate(921 1174)" fill="none" stroke="#333" stroke-linecap="round" stroke-linejoin="round" stroke-width="2"/>
      <path id="Tracé_36-3" data-name="Tracé 36" d="M647.77-8.963a3.944,3.944,0,0,1-3.945,3.944,3.944,3.944,0,0,1-3.944-3.944,3.944,3.944,0,0,1,3.944-3.945A3.945,3.945,0,0,1,647.77-8.963Z" transform="translate(921 1174)" fill="none" stroke="#333" stroke-linecap="round" stroke-linejoin="round" stroke-width="2"/>
      <path id="Tracé_37-3" data-name="Tracé 37" d="M669.857-8.963a3.944,3.944,0,0,1-3.944,3.944,3.944,3.944,0,0,1-3.944-3.944,3.944,3.944,0,0,1,3.944-3.945A3.944,3.944,0,0,1,669.857-8.963Z" transform="translate(921 1174)" fill="none" stroke="#813afe" stroke-linecap="round" stroke-linejoin="round" stroke-width="2"/>
      <path id="Tracé_38-3" data-name="Tracé 38" d="M691.944-8.963A3.944,3.944,0,0,1,688-5.019a3.944,3.944,0,0,1-3.944-3.944A3.944,3.944,0,0,1,688-12.908,3.944,3.944,0,0,1,691.944-8.963Z" transform="translate(921 1174)" fill="none" stroke="#333" stroke-linecap="round" stroke-linejoin="round" stroke-width="2"/>
    </g>
    <g id="Groupe_129" data-name="Groupe 129" transform="translate(84 87)" opacity="0.5">
      <path id="Tracé_24-4" data-name="Tracé 24" d="M625.682,58.482a3.944,3.944,0,1,1-3.944-3.944A3.944,3.944,0,0,1,625.682,58.482Z" transform="translate(921 1174)" fill="none" stroke="#333" stroke-linecap="round" stroke-linejoin="round" stroke-width="2"/>
      <path id="Tracé_25-4" data-name="Tracé 25" d="M647.77,58.482a3.945,3.945,0,1,1-3.945-3.944A3.944,3.944,0,0,1,647.77,58.482Z" transform="translate(921 1174)" fill="none" stroke="#813afe" stroke-linecap="round" stroke-linejoin="round" stroke-width="3"/>
      <path id="Tracé_26-4" data-name="Tracé 26" d="M669.857,58.482a3.944,3.944,0,1,1-3.944-3.944A3.944,3.944,0,0,1,669.857,58.482Z" transform="translate(921 1174)" fill="none" stroke="#333" stroke-linecap="round" stroke-linejoin="round" stroke-width="2"/>
      <path id="Tracé_27-4" data-name="Tracé 27" d="M691.944,58.482A3.944,3.944,0,1,1,688,54.538,3.944,3.944,0,0,1,691.944,58.482Z" transform="translate(921 1174)" fill="none" stroke="#333" stroke-linecap="round" stroke-linejoin="round" stroke-width="1"/>
      <path id="Tracé_28-4" data-name="Tracé 28" d="M625.682,36a3.944,3.944,0,1,1-3.944-3.944A3.944,3.944,0,0,1,625.682,36Z" transform="translate(921 1174)" fill="none" stroke="#333" stroke-linecap="round" stroke-linejoin="round" stroke-width="2"/>
      <path id="Tracé_29-4" data-name="Tracé 29" d="M647.77,36a3.945,3.945,0,1,1-3.945-3.944A3.944,3.944,0,0,1,647.77,36Z" transform="translate(921 1174)" fill="none" stroke="#333" stroke-linecap="round" stroke-linejoin="round" stroke-width="1"/>
      <path id="Tracé_30-4" data-name="Tracé 30" d="M669.857,36a3.944,3.944,0,1,1-3.944-3.944A3.944,3.944,0,0,1,669.857,36Z" transform="translate(921 1174)" fill="none" stroke="#333" stroke-linecap="round" stroke-linejoin="round" stroke-width="2"/>
      <circle id="Ellipse_269-4" data-name="Ellipse 269" cx="3.944" cy="3.944" r="3.944" transform="translate(1605.056 1206.056)" fill="none" stroke="#813afe" stroke-linecap="round" stroke-linejoin="round" stroke-width="2"/>
      <path id="Tracé_31-4" data-name="Tracé 31" d="M625.682,13.518a3.944,3.944,0,1,1-3.944-3.944A3.944,3.944,0,0,1,625.682,13.518Z" transform="translate(921 1174)" fill="none" stroke="#813afe" stroke-linecap="round" stroke-linejoin="round" stroke-width="2"/>
      <path id="Tracé_32-4" data-name="Tracé 32" d="M647.77,13.518a3.945,3.945,0,1,1-3.945-3.944A3.944,3.944,0,0,1,647.77,13.518Z" transform="translate(921 1174)" fill="none" stroke="#333" stroke-linecap="round" stroke-linejoin="round" stroke-width="2"/>
      <path id="Tracé_33-4" data-name="Tracé 33" d="M669.857,13.518a3.944,3.944,0,1,1-3.944-3.944A3.944,3.944,0,0,1,669.857,13.518Z" transform="translate(921 1174)" fill="none" stroke="#333" stroke-linecap="round" stroke-linejoin="round" stroke-width="2"/>
      <path id="Tracé_34-4" data-name="Tracé 34" d="M691.944,13.518A3.944,3.944,0,1,1,688,9.574,3.944,3.944,0,0,1,691.944,13.518Z" transform="translate(921 1174)" fill="none" stroke="#333" stroke-linecap="round" stroke-linejoin="round" stroke-width="2"/>
      <path id="Tracé_35-4" data-name="Tracé 35" d="M625.682-8.963a3.944,3.944,0,0,1-3.944,3.944,3.944,3.944,0,0,1-3.944-3.944,3.944,3.944,0,0,1,3.944-3.945A3.944,3.944,0,0,1,625.682-8.963Z" transform="translate(921 1174)" fill="none" stroke="#333" stroke-linecap="round" stroke-linejoin="round" stroke-width="2"/>
      <path id="Tracé_36-4" data-name="Tracé 36" d="M647.77-8.963a3.944,3.944,0,0,1-3.945,3.944,3.944,3.944,0,0,1-3.944-3.944,3.944,3.944,0,0,1,3.944-3.945A3.945,3.945,0,0,1,647.77-8.963Z" transform="translate(921 1174)" fill="none" stroke="#333" stroke-linecap="round" stroke-linejoin="round" stroke-width="2"/>
      <path id="Tracé_37-4" data-name="Tracé 37" d="M669.857-8.963a3.944,3.944,0,0,1-3.944,3.944,3.944,3.944,0,0,1-3.944-3.944,3.944,3.944,0,0,1,3.944-3.945A3.944,3.944,0,0,1,669.857-8.963Z" transform="translate(921 1174)" fill="none" stroke="#813afe" stroke-linecap="round" stroke-linejoin="round" stroke-width="2"/>
      <path id="Tracé_38-4" data-name="Tracé 38" d="M691.944-8.963A3.944,3.944,0,0,1,688-5.019a3.944,3.944,0,0,1-3.944-3.944A3.944,3.944,0,0,1,688-12.908,3.944,3.944,0,0,1,691.944-8.963Z" transform="translate(921 1174)" fill="none" stroke="#333" stroke-linecap="round" stroke-linejoin="round" stroke-width="2"/>
    </g>
  </g>
</svg>
