<svg xmlns="http://www.w3.org/2000/svg" width="70" height="18.5" viewBox="0 0 70 18.5">
  <g id="Groupe_134" data-name="Groupe 134" transform="translate(-475 -3684)">
    <circle id="Ellipse_286" data-name="Ellipse 286" cx="2.5" cy="2.5" r="2.5" transform="translate(540 3696)" fill="#813afe"/>
    <g id="Groupe_133" data-name="Groupe 133" transform="translate(-18.5 12)">
      <line id="Ligne_64" data-name="Ligne 64" x2="6" transform="translate(493.5 3687.5)" fill="none" stroke="#813afe" stroke-width="1"/>
      <line id="Ligne_65" data-name="Ligne 65" y2="6" transform="translate(496.5 3684.5)" fill="none" stroke="#813afe" stroke-width="1"/>
    </g>
    <g id="Polygone_16" data-name="Polygone 16" transform="translate(513 3692) rotate(180)" fill="none">
      <path d="M3.3,2.714a2,2,0,0,1,3.392,0L8.088,4.94A2,2,0,0,1,6.392,8H3.608a2,2,0,0,1-1.7-3.06Z" stroke="none"/>
      <path d="M 5 2.773589134216309 C 4.83335018157959 2.773589134216309 4.417129993438721 2.819389343261719 4.151999950408936 3.243599414825439 L 2.760499954223633 5.469999313354492 C 2.478710174560547 5.920859336853027 2.647990226745605 6.329859256744385 2.733850002288818 6.484769344329834 C 2.819709777832031 6.639678955078125 3.076819896697998 6.999999046325684 3.608500003814697 6.999999046325684 L 6.391499996185303 6.999999046325684 C 6.923180103302002 6.999999046325684 7.180290222167969 6.639678955078125 7.266149997711182 6.484769344329834 C 7.352009773254395 6.329859256744385 7.521289825439453 5.920859336853027 7.239500045776367 5.469999313354492 L 5.848000049591064 3.243599414825439 C 5.582870006561279 2.819389343261719 5.16664981842041 2.773589134216309 5 2.773589134216309 M 5 1.773594379425049 C 5.652164936065674 1.773594379425049 6.304329872131348 2.086929321289062 6.696000099182129 2.71359920501709 L 8.087499618530273 4.939999103546143 C 8.920060157775879 6.272099494934082 7.962379932403564 7.999999046325684 6.391499996185303 7.999999046325684 L 3.608500003814697 7.999999046325684 C 2.037620067596436 7.999999046325684 1.079939842224121 6.272099494934082 1.912500381469727 4.939999103546143 L 3.303999900817871 2.71359920501709 C 3.695670127868652 2.086929321289062 4.347835063934326 1.773594379425049 5 1.773594379425049 Z" stroke="none" fill="#813afe"/>
    </g>
  </g>
</svg>
