<svg xmlns="http://www.w3.org/2000/svg" width="60.959" height="60.367" viewBox="0 0 60.959 60.367">
  <g id="Polygone_13" data-name="Polygone 13" transform="translate(26.242) rotate(41)" fill="none" opacity="0.2">
    <path d="M16.932,10.554a7,7,0,0,1,12.137,0l10.9,18.957A7,7,0,0,1,33.9,40H12.1A7,7,0,0,1,6.031,29.511Z" stroke="none"/>
    <path d="M 22.99999046325684 11.04293060302734 C 22.4781494140625 11.04293060302734 21.18012046813965 11.18954086303711 20.3992805480957 12.54752349853516 L 9.498970031738281 31.50458145141602 C 8.720508575439453 32.85842132568359 9.242420196533203 34.05197143554688 9.502941131591797 34.50229263305664 C 9.763458251953125 34.95261383056641 10.53799819946289 36 12.09968948364258 36 L 33.90031051635742 36 C 35.46199035644531 36 36.23654174804688 34.95261383056641 36.4970588684082 34.50229263305664 C 36.7575798034668 34.05197143554688 37.27947998046875 32.85842132568359 36.50102233886719 31.50458145141602 L 25.60070991516113 12.54752349853516 C 24.81986999511719 11.18954086303711 23.52182960510254 11.04293060302734 22.99999046325684 11.04293060302734 M 22.9999942779541 7.042938232421875 C 25.36128234863281 7.042938232421875 27.72257041931152 8.213172912597656 29.06834030151367 10.55364227294922 L 39.96865081787109 29.51070213317871 C 42.65198135375977 34.17735290527344 39.28342056274414 40 33.90031051635742 40 L 12.09968948364258 40 C 6.716571807861328 40 3.348018646240234 34.17735290527344 6.031341552734375 29.51070213317871 L 16.93165016174316 10.55364227294922 C 18.27742004394531 8.213172912597656 20.63870811462402 7.042938232421875 22.9999942779541 7.042938232421875 Z" stroke="none" fill="#813afe"/>
  </g>
</svg>
