<svg xmlns="http://www.w3.org/2000/svg" width="209.333" height="69" viewBox="0 0 209.333 69">
  <g id="Groupe_161" data-name="Groupe 161" transform="translate(38.333 -128.833)" opacity="0.5">
    <path id="Tracé_18" data-name="Tracé 18" d="M-35.333,172.833c25.416,0,25.416,24,50.834,24s25.416-24,50.832-24,25.416,24,50.833,24,25.417-24,50.835-24" transform="translate(0)" fill="none" stroke="#fff" stroke-linecap="round" stroke-linejoin="round" stroke-width="2"/>
    <path id="Tracé_19" data-name="Tracé 19" d="M-35.333,151.833c25.416,0,25.416,24,50.834,24s25.416-24,50.832-24,25.416,24,50.833,24,25.417-24,50.835-24" transform="translate(0)" fill="none" stroke="#fff" stroke-linecap="round" stroke-linejoin="round" stroke-width="6"/>
    <path id="Tracé_20" data-name="Tracé 20" d="M-35.333,130.833c25.416,0,25.416,24,50.834,24s25.416-24,50.832-24,25.416,24,50.833,24,25.417-24,50.835-24" transform="translate(0)" fill="none" stroke="#fff" stroke-linecap="round" stroke-linejoin="round" stroke-width="4"/>
  </g>
</svg>
